<?xml version="1.0" standalone="no"?>
<!DOCTYPE svg PUBLIC "-//W3C//DTD SVG 20010904//EN"
 "http://www.w3.org/TR/2001/REC-SVG-20010904/DTD/svg10.dtd">
<svg version="1.0" xmlns="http://www.w3.org/2000/svg"
 width="820.000000pt" height="585.000000pt" viewBox="0 0 820.000000 585.000000"
 preserveAspectRatio="none">
<metadata>
Created by potrace 1.16, written by Peter Selinger 2001-2019
</metadata>
<g transform="translate(0.000000,585.000000) scale(0.100000,-0.100000)"
fill="#1a0c4b" stroke="none">
<path d="M2 2943 l-1 -2908 412 3 c227 1 418 2 425 2 16 0 15 45 -2 156 -8 49
-19 123 -25 164 -36 241 -163 843 -216 1016 -20 65 -19 71 8 80 12 4 25 11 29
17 8 13 -15 90 -64 210 -22 54 -38 100 -36 102 2 2 41 -32 87 -76 46 -43 89
-79 95 -79 18 1 61 38 53 46 -4 4 -7 2 -7 -4 0 -26 -29 -8 -95 58 -38 39 -65
70 -60 70 5 0 -4 13 -19 29 -15 16 -23 31 -18 35 10 6 89 -41 118 -72 10 -11
33 -28 50 -38 17 -11 31 -23 31 -27 2 -26 13 -48 22 -42 17 10 13 55 -4 55 -8
0 -15 4 -15 8 0 21 -222 172 -254 172 -10 0 -16 9 -16 22 0 12 -7 30 -16 40
-20 22 -27 12 127 189 332 384 651 883 925 1444 243 499 388 937 443 1337 l16
117 125 -75 c615 -369 1327 -563 2061 -564 289 0 459 16 739 71 442 87 917
276 1248 497 28 19 55 32 58 29 4 -4 15 -62 25 -129 44 -290 154 -648 314
-1023 54 -127 228 -482 280 -570 19 -33 38 -66 42 -74 13 -28 110 -197 138
-241 244 -389 443 -661 657 -901 37 -42 68 -81 68 -85 -1 -13 -37 -54 -48 -54
-39 0 -302 -151 -302 -173 0 -18 18 -42 25 -35 3 3 7 15 8 27 1 11 6 21 12 21
5 0 38 20 73 44 70 49 119 72 130 61 4 -3 -5 -17 -20 -30 -15 -13 -25 -25 -22
-28 3 -2 -14 -19 -38 -38 -24 -18 -57 -46 -75 -62 -27 -26 -35 -28 -48 -17
-13 11 -15 10 -10 -2 3 -8 17 -21 30 -28 22 -12 29 -9 85 36 34 27 76 61 93
76 18 15 35 28 40 28 4 0 -20 -51 -53 -113 -32 -61 -66 -131 -74 -154 -13 -38
-13 -43 3 -57 24 -22 32 -20 22 5 -11 31 69 228 97 237 19 6 8 -91 -18 -163
-12 -33 -23 -66 -24 -74 -2 -8 -11 -18 -22 -22 -16 -6 -14 -8 9 -8 15 -1 27
-5 27 -10 0 -5 -20 -88 -45 -183 -96 -373 -200 -909 -229 -1186 l-7 -62 416 0
415 0 -1 988 c0 651 -4 980 -10 967 -28 -56 -271 -101 -325 -60 -19 15 -19 15
1 13 51 -3 74 2 69 17 -5 11 1 15 23 15 17 0 65 10 109 21 43 12 91 21 107 21
l27 -1 0 1914 0 1915 -4099 0 -4099 0 0 -2907z m119 -932 c32 -11 82 -22 113
-26 35 -5 56 -12 56 -20 0 -14 30 -25 70 -25 19 0 21 -3 11 -9 -19 -13 -143
-13 -200 -1 -92 20 -163 70 -129 91 17 11 14 12 79 -10z"/>
</g>
</svg>
