<?xml version="1.0" standalone="no"?>
<!DOCTYPE svg PUBLIC "-//W3C//DTD SVG 20010904//EN"
 "http://www.w3.org/TR/2001/REC-SVG-20010904/DTD/svg10.dtd">
<svg version="1.0" xmlns="http://www.w3.org/2000/svg"
 width="1300.000000pt" height="736.000000pt" viewBox="0 0 1300.000000 736.000000"
 preserveAspectRatio="none">
<metadata>
Created by potrace 1.16, written by Peter Selinger 2001-2019
</metadata>
<g transform="translate(0.000000,736.000000) scale(0.100000,-0.100000)"
fill="#000000" stroke="none">
<path d="M1216 5179 c-32 -5 -61 -10 -63 -12 -7 -8 29 -67 49 -82 21 -14 20
-14 -19 -21 l-40 -6 -6 -227 c-4 -124 -13 -496 -22 -826 -8 -330 -16 -671 -19
-757 -4 -141 -3 -159 12 -168 16 -9 16 -9 0 -10 -16 0 -18 -13 -18 -132 0 -77
4 -127 9 -120 7 11 10 10 15 -3 8 -23 8 -23 -11 -29 -14 -4 -13 -4 2 -3 27 3
72 -50 56 -66 -15 -15 -14 -94 1 -99 16 -6 -28 -68 -48 -68 -8 0 -14 -6 -14
-14 0 -8 -4 -16 -10 -18 -5 -1 -12 -34 -16 -73 l-7 -70 62 60 c72 69 81 74 81
46 0 -12 5 -21 10 -21 6 0 10 -5 10 -11 0 -5 -5 -7 -11 -4 -6 4 -5 -2 3 -14
14 -24 47 -38 57 -25 3 5 39 10 79 11 96 3 171 25 205 61 27 28 27 29 34 216
4 121 10 189 17 191 6 2 30 9 54 15 23 6 56 23 73 38 l30 27 6 193 c6 193 6
194 30 203 13 5 34 9 47 9 44 0 127 31 161 61 l35 31 0 141 0 140 -22 -19 -23
-19 21 25 c12 14 24 37 28 53 5 20 13 27 29 27 13 0 29 6 36 13 11 10 13 10 7
0 -5 -10 8 -13 53 -13 l61 0 0 295 c0 236 3 295 13 295 7 0 33 -13 58 -28 92
-58 222 -123 235 -118 8 3 13 1 11 -5 -3 -13 264 -150 498 -254 155 -70 488
-205 503 -205 3 0 -12 19 -33 43 -37 38 -36 38 11 -6 57 -54 118 -80 409 -172
1100 -348 2226 -471 3350 -365 671 63 1283 193 1930 411 177 60 216 77 250
107 23 21 29 25 16 10 -14 -16 -21 -28 -17 -28 15 0 362 142 531 218 124 55
368 174 433 210 l44 25 -44 46 -43 46 45 -42 c25 -24 50 -43 55 -43 6 0 70 34
144 75 74 41 136 73 138 72 1 -2 3 -135 3 -295 l1 -292 66 0 c61 0 64 1 52 18
-13 16 -13 16 7 0 11 -10 28 -18 38 -18 9 0 19 -8 22 -17 3 -10 10 -26 15 -37
7 -13 7 -16 0 -11 -8 4 -11 -37 -11 -134 0 -135 1 -140 25 -170 30 -35 106
-65 186 -75 l56 -7 6 -97 c4 -53 7 -140 7 -193 0 -92 1 -98 28 -127 16 -17 48
-35 73 -42 24 -7 49 -14 55 -15 12 -3 24 -146 24 -286 0 -97 13 -124 73 -152
28 -14 186 -45 327 -65 19 -2 38 -10 42 -16 5 -8 8 -7 8 2 0 10 5 10 20 2 11
-6 18 -15 15 -21 -4 -5 0 -9 9 -9 8 0 17 -6 19 -12 3 -7 6 15 6 50 1 57 -10
81 -22 50 -3 -7 -6 0 -6 15 -1 16 -5 26 -11 22 -6 -3 -10 4 -10 17 0 18 2 20
10 8 13 -21 24 -5 11 17 -7 14 -6 27 4 47 14 26 13 94 -1 117 -5 8 -3 9 6 4
11 -7 12 39 6 251 -3 142 -15 617 -26 1054 -11 437 -22 859 -26 938 l-6 142
-57 0 c-55 1 -56 1 -33 18 56 40 96 81 89 89 -5 4 -129 9 -275 11 -147 2 -289
3 -317 4 -27 1 -106 0 -175 -1 -69 -2 -151 0 -182 4 -43 6 -62 4 -75 -6 -14
-12 -16 -12 -8 0 5 10 4 12 -4 7 -6 -4 -120 -7 -254 -6 -275 2 -405 3 -584 2
-32 0 -143 -4 -246 -7 l-188 -7 18 -22 c16 -19 16 -19 -8 2 l-25 22 -1160 0
c-914 0 -1163 -3 -1173 -12 -11 -10 -13 -10 -7 0 6 9 -138 12 -703 12 -391 0
-711 -4 -711 -8 0 -4 6 -14 13 -22 6 -8 1 -6 -12 5 -23 20 -45 20 -1580 20
-856 0 -1655 1 -1776 3 -121 2 -229 3 -240 2 -11 0 -96 2 -190 6 -202 7 -311
8 -542 6 -95 -1 -178 0 -185 2 -7 2 -40 0 -72 -5z"/>
</g>
</svg>
