<?xml version="1.0" standalone="no"?>
<!DOCTYPE svg PUBLIC "-//W3C//DTD SVG 20010904//EN"
 "http://www.w3.org/TR/2001/REC-SVG-20010904/DTD/svg10.dtd">
<svg version="1.0" xmlns="http://www.w3.org/2000/svg"
 width="840.000000pt" height="487.000000pt" viewBox="0 0 840.000000 487.000000"
 preserveAspectRatio="xMidYMid meet">
<metadata>
Created by potrace 1.16, written by Peter Selinger 2001-2019
</metadata>
<g transform="translate(0.000000,487.000000) scale(0.100000,-0.100000)"
fill="#000000" stroke="none">
<path d="M4775 4559 c-467 -44 -890 -263 -1088 -565 l-58 -89 -93 91 c-431
422 -1075 501 -1664 205 -143 -72 -261 -159 -388 -285 -221 -221 -335 -445
-366 -720 -15 -137 9 -332 57 -457 5 -15 -11 -17 -142 -21 -115 -4 -163 -10
-218 -28 -325 -103 -508 -380 -508 -770 0 -316 119 -607 337 -826 197 -198
421 -288 701 -282 l131 3 72 -64 c330 -296 733 -443 1212 -443 330 1 660 68
992 204 l97 39 123 -39 c640 -205 1340 -201 1945 9 133 46 325 135 424 197
l67 41 118 -24 c482 -98 879 -34 1160 188 391 310 519 961 313 1590 -117 360
-321 645 -580 816 -171 112 -332 157 -533 148 -140 -6 -233 -28 -369 -88 -51
-22 -98 -43 -104 -46 -9 -3 -13 5 -13 25 0 105 -68 349 -133 479 -246 486
-845 772 -1492 712z m460 -113 c210 -38 415 -117 575 -222 92 -59 242 -206
300 -293 144 -214 208 -468 197 -774 -6 -157 -1 -177 43 -177 33 0 48 39 55
146 l7 101 76 41 c385 205 764 144 1067 -170 108 -111 185 -223 259 -379 224
-465 248 -1012 61 -1395 -139 -286 -366 -459 -681 -520 -130 -25 -371 -23
-538 5 -72 12 -132 24 -134 26 -3 3 18 28 46 55 29 28 52 58 52 66 0 17 -35
54 -51 54 -6 0 -41 -27 -77 -61 -361 -331 -1071 -534 -1709 -490 -381 26 -751
114 -1084 256 -94 41 -124 43 -140 14 -19 -37 2 -62 80 -94 39 -15 68 -32 64
-36 -16 -16 -236 -89 -369 -122 -244 -61 -332 -72 -589 -72 -210 1 -241 3
-356 28 -217 46 -404 122 -574 234 -104 69 -219 163 -210 172 4 3 41 17 83 31
82 27 99 43 88 83 -8 35 -29 37 -116 9 -142 -44 -209 -55 -350 -55 -155 1
-244 20 -364 77 -340 164 -565 580 -543 1005 11 209 64 340 186 462 123 123
251 171 456 172 161 1 179 -4 212 -61 49 -86 102 -159 119 -166 21 -8 64 19
64 41 0 9 -23 52 -51 96 -298 464 -230 957 184 1343 386 359 966 500 1424 347
287 -96 528 -301 706 -603 31 -52 61 -101 67 -107 16 -19 44 -16 65 7 18 20
18 22 -12 84 -18 35 -52 96 -77 135 -25 39 -46 76 -46 82 0 36 114 195 199
277 196 189 496 320 827 362 103 13 405 4 509 -14z"/>
</g>
</svg>
