<?xml version="1.0" standalone="no"?>
<!DOCTYPE svg PUBLIC "-//W3C//DTD SVG 20010904//EN"
 "http://www.w3.org/TR/2001/REC-SVG-20010904/DTD/svg10.dtd">
<svg version="1.0" xmlns="http://www.w3.org/2000/svg"
 width="840.000000pt" height="396.000000pt" viewBox="0 0 840.000000 396.000000"
 preserveAspectRatio="xMidYMid meet">
<metadata>
Created by potrace 1.16, written by Peter Selinger 2001-2019
</metadata>
<g transform="translate(0.000000,396.000000) scale(0.100000,-0.100000)"
fill="#000000" stroke="none">
<path d="M4250 3514 c-321 -41 -606 -175 -824 -388 -137 -133 -256 -314 -312
-474 -14 -40 -22 -51 -34 -46 -193 82 -395 46 -542 -97 -68 -66 -111 -150
-129 -249 l-12 -68 -171 5 c-201 6 -300 -7 -452 -62 -188 -67 -342 -184 -441
-336 -64 -99 -87 -176 -87 -299 0 -101 17 -178 59 -260 87 -171 278 -322 500
-394 266 -86 590 -71 839 39 l55 24 43 -81 c131 -252 423 -406 700 -368 144
20 285 87 385 183 l42 40 63 -26 c125 -52 181 -62 353 -62 137 0 171 4 237 23
96 28 174 62 242 106 l53 34 69 -59 c315 -266 778 -332 1174 -165 148 63 290
169 390 291 34 41 64 75 68 76 4 1 45 3 92 4 237 10 435 153 519 375 35 92 36
245 2 343 -89 261 -364 422 -644 374 l-47 -8 -58 54 c-162 152 -330 239 -579
297 l-51 12 -7 51 c-51 394 -338 779 -725 972 -179 90 -369 135 -590 140 -80
2 -161 1 -180 -1z m281 -35 c239 -24 434 -94 628 -223 312 -208 503 -515 556
-888 5 -39 11 -49 28 -52 12 -3 58 -12 101 -21 195 -41 378 -139 514 -276 l71
-70 46 12 c69 17 237 7 304 -19 207 -81 341 -270 341 -482 0 -147 -45 -255
-150 -360 -109 -109 -267 -169 -410 -156 l-65 7 -34 -51 c-44 -64 -184 -200
-253 -244 -329 -210 -751 -234 -1093 -63 -80 40 -191 117 -240 167 -21 22 -44
40 -51 40 -6 0 -38 -17 -70 -38 -142 -92 -284 -133 -464 -134 -142 0 -256 22
-364 71 l-64 29 -39 -40 c-53 -55 -159 -124 -234 -152 -329 -123 -686 28 -835
351 -19 40 -35 73 -37 73 -2 0 -35 -14 -73 -31 -170 -77 -315 -104 -521 -96
-278 10 -481 89 -652 252 -165 158 -228 355 -176 549 68 254 337 461 675 521
101 18 269 19 375 4 42 -6 78 -9 80 -7 3 3 9 37 14 76 36 289 334 465 603 358
36 -14 67 -26 70 -26 4 0 14 24 24 53 97 297 343 576 644 727 235 118 493 166
751 139z"/>
</g>
</svg>
